<?xml version="1.0" encoding="UTF-8" standalone="no"?>
<!DOCTYPE svg PUBLIC "-//W3C//DTD SVG 1.1//EN" "http://www.w3.org/Graphics/SVG/1.1/DTD/svg11.dtd">
<svg width="100%" height="100%" viewBox="0 0 40 40" version="1.1" xmlns="http://www.w3.org/2000/svg" xmlns:xlink="http://www.w3.org/1999/xlink" xml:space="preserve" xmlns:serif="http://www.serif.com/" style="fill-rule:evenodd;clip-rule:evenodd;stroke-linejoin:round;stroke-miterlimit:2;">
    <g transform="matrix(1,0,0,0.969697,0,1.09091)">
        <path d="M36,7.125C36,4.848 34.208,3 32,3L8,3C5.792,3 4,4.848 4,7.125L4,31.875C4,34.152 5.792,36 8,36L32,36C34.208,36 36,34.152 36,31.875L36,7.125Z" style="fill:rgb(54,77,121);"/>
    </g>
    <g transform="matrix(0.0703125,0,0,0.0703125,12.5326,25.9862)">
        <g transform="matrix(426.667,0,0,426.667,0,0)">
            <path d="M0.48,-0.01C0.48,-0.003 0.477,0.001 0.47,0.001L0.374,0C0.368,0 0.365,-0.005 0.365,-0.014C0.365,-0.03 0.366,-0.054 0.367,-0.087C0.368,-0.119 0.368,-0.144 0.368,-0.16C0.368,-0.173 0.368,-0.193 0.368,-0.219C0.367,-0.244 0.367,-0.264 0.367,-0.277C0.367,-0.314 0.362,-0.34 0.351,-0.355C0.338,-0.374 0.314,-0.383 0.279,-0.383C0.263,-0.383 0.24,-0.374 0.211,-0.355C0.18,-0.336 0.165,-0.319 0.165,-0.304L0.165,-0.011C0.165,-0.003 0.162,0.001 0.156,0.001L0.062,0C0.055,0 0.052,-0.004 0.052,-0.011C0.052,-0.037 0.052,-0.076 0.053,-0.127C0.054,-0.178 0.054,-0.217 0.054,-0.243C0.054,-0.313 0.047,-0.376 0.032,-0.435C0.031,-0.438 0.031,-0.44 0.031,-0.441C0.031,-0.445 0.033,-0.447 0.037,-0.448C0.039,-0.449 0.058,-0.452 0.093,-0.457C0.128,-0.463 0.146,-0.466 0.148,-0.466C0.15,-0.466 0.151,-0.463 0.152,-0.458C0.153,-0.438 0.157,-0.417 0.163,-0.397C0.18,-0.41 0.202,-0.427 0.23,-0.447C0.264,-0.468 0.297,-0.478 0.329,-0.478C0.39,-0.478 0.432,-0.46 0.455,-0.425C0.471,-0.399 0.479,-0.357 0.479,-0.298C0.479,-0.288 0.479,-0.273 0.479,-0.252C0.478,-0.231 0.478,-0.215 0.478,-0.205C0.478,-0.183 0.478,-0.151 0.479,-0.107C0.48,-0.064 0.48,-0.032 0.48,-0.01Z" style="fill:white;fill-rule:nonzero;"/>
        </g>
    </g>
    <g transform="matrix(10.5485,0,0,10.5485,11.4198,33.2236)">
        <g>
            <path d="M0.529,-0.312L0.333,-0.312L0.333,-0.116L0.251,-0.116L0.251,-0.312L0.055,-0.312L0.055,-0.394L0.251,-0.394L0.251,-0.59L0.333,-0.59L0.333,-0.394L0.529,-0.394L0.529,-0.312Z" style="fill:white;fill-rule:nonzero;"/>
        </g>
    </g>
    <g transform="matrix(10.5485,0,0,10.5485,23.4198,33.2236)">
        <g>
            <path d="M0.529,-0.312L0.333,-0.312L0.333,-0.116L0.251,-0.116L0.251,-0.312L0.055,-0.312L0.055,-0.394L0.251,-0.394L0.251,-0.59L0.333,-0.59L0.333,-0.394L0.529,-0.394L0.529,-0.312Z" style="fill:white;fill-rule:nonzero;"/>
        </g>
    </g>
    <g transform="matrix(10.5485,0,0,10.5485,17.4198,33.2236)">
        <g>
            <path d="M0.529,-0.312L0.333,-0.312L0.333,-0.116L0.251,-0.116L0.251,-0.312L0.055,-0.312L0.055,-0.394L0.251,-0.394L0.251,-0.59L0.333,-0.59L0.333,-0.394L0.529,-0.394L0.529,-0.312Z" style="fill:white;fill-rule:nonzero;"/>
        </g>
    </g>
</svg>
